<svg width="48" height="48" viewBox="0 0 48 48" fill="none" xmlns="http://www.w3.org/2000/svg">
<path d="M12 28L15 22.2C15.3261 21.5523 15.8222 21.0054 16.4352 20.6179C17.0482 20.2304 17.755 20.0168 18.48 20H40M40 20C40.6111 19.9989 41.2143 20.1379 41.7633 20.4062C42.3123 20.6745 42.7925 21.065 43.1672 21.5477C43.5418 22.0305 43.8008 22.5927 43.9244 23.1911C44.048 23.7896 44.0328 24.4083 43.88 25L40.8 37C40.5772 37.8631 40.0724 38.6271 39.3658 39.1706C38.6593 39.7141 37.7914 40.006 36.9 40H8C6.93913 40 5.92172 39.5786 5.17157 38.8284C4.42143 38.0783 4 37.0609 4 36V10C4 8.93914 4.42143 7.92173 5.17157 7.17158C5.92172 6.42144 6.93913 6.00001 8 6.00001H15.8C16.469 5.99345 17.1289 6.15479 17.7194 6.46925C18.3099 6.78371 18.8121 7.24126 19.18 7.80001L20.8 10.2C21.1642 10.7531 21.6601 11.2071 22.243 11.5212C22.826 11.8354 23.4778 11.9999 24.14 12H36C37.0609 12 38.0783 12.4214 38.8284 13.1716C39.5786 13.9217 40 14.9391 40 16V20Z" stroke="white" stroke-width="3.5" stroke-linecap="round" stroke-linejoin="round"/>
</svg>