<svg width="48" height="48" viewBox="0 0 48 48" fill="none" xmlns="http://www.w3.org/2000/svg">
<path d="M12 22H20M16 18V26M30 24H30.02M36 20H36.02M34.64 10H13.36C11.3806 10.0005 9.47157 10.7348 8.00207 12.0609C6.53256 13.3871 5.60689 15.211 5.404 17.18C5.392 17.284 5.384 17.382 5.37 17.484C5.208 18.832 4 28.912 4 32C4 33.5913 4.63214 35.1174 5.75736 36.2426C6.88258 37.3679 8.4087 38 10 38C12 38 13 37 14 36L16.828 33.172C17.578 32.4218 18.5952 32.0002 19.656 32H28.344C29.4048 32.0002 30.422 32.4218 31.172 33.172L34 36C35 37 36 38 38 38C39.5913 38 41.1174 37.3679 42.2426 36.2426C43.3679 35.1174 44 33.5913 44 32C44 28.91 42.792 18.832 42.63 17.484C42.616 17.384 42.608 17.284 42.596 17.182C42.3936 15.2126 41.4681 13.3883 39.9986 12.0617C38.529 10.7351 36.6198 10.0005 34.64 10Z" stroke="#222222" stroke-width="3.5" stroke-linecap="round" stroke-linejoin="round"/>
</svg>