<svg width="48" height="48" viewBox="0 0 48 48" fill="none" xmlns="http://www.w3.org/2000/svg">
<path d="M40 4.00003V12M44 8.00003H36M22.034 5.62803C22.1197 5.16923 22.3632 4.75486 22.7222 4.45667C23.0813 4.15847 23.5333 3.99524 24 3.99524C24.4668 3.99524 24.9188 4.15847 25.2778 4.45667C25.6369 4.75486 25.8803 5.16923 25.966 5.62803L28.068 16.744C28.2173 17.5343 28.6014 18.2613 29.1701 18.83C29.7388 19.3987 30.4657 19.7827 31.256 19.932L42.372 22.034C42.8308 22.1197 43.2452 22.3632 43.5434 22.7222C43.8416 23.0813 44.0048 23.5333 44.0048 24C44.0048 24.4668 43.8416 24.9188 43.5434 25.2778C43.2452 25.6369 42.8308 25.8803 42.372 25.966L31.256 28.068C30.4657 28.2173 29.7388 28.6014 29.1701 29.1701C28.6014 29.7388 28.2173 30.4657 28.068 31.256L25.966 42.372C25.8803 42.8308 25.6369 43.2452 25.2778 43.5434C24.9188 43.8416 24.4668 44.0048 24 44.0048C23.5333 44.0048 23.0813 43.8416 22.7222 43.5434C22.3632 43.2452 22.1197 42.8308 22.034 42.372L19.932 31.256C19.7827 30.4657 19.3987 29.7388 18.83 29.1701C18.2613 28.6014 17.5343 28.2173 16.744 28.068L5.62803 25.966C5.16924 25.8803 4.75486 25.6369 4.45667 25.2778C4.15847 24.9188 3.99524 24.4668 3.99524 24C3.99524 23.5333 4.15847 23.0813 4.45667 22.7222C4.75486 22.3632 5.16924 22.1197 5.62803 22.034L16.744 19.932C17.5343 19.7827 18.2613 19.3987 18.83 18.83C19.3987 18.2613 19.7827 17.5343 19.932 16.744L22.034 5.62803ZM12 40C12 42.2092 10.2092 44 8.00003 44C5.79089 44 4.00003 42.2092 4.00003 40C4.00003 37.7909 5.79089 36 8.00003 36C10.2092 36 12 37.7909 12 40Z" stroke="#333333" stroke-width="3.5" stroke-linecap="round" stroke-linejoin="round"/>
</svg>