<svg width="48" height="48" viewBox="0 0 48 48" fill="none" xmlns="http://www.w3.org/2000/svg">
<path d="M14 42H34M30.066 18.88C30.2624 18.9937 30.4255 19.157 30.5389 19.3536C30.6522 19.5501 30.7119 19.7731 30.7119 20C30.7119 20.2269 30.6522 20.4499 30.5389 20.6464C30.4255 20.843 30.2624 21.0063 30.066 21.12L21.936 25.824C21.7397 25.9376 21.5168 25.9974 21.29 25.9974C21.0632 25.9974 20.8404 25.9376 20.644 25.824C20.4477 25.7104 20.2848 25.5471 20.1717 25.3504C20.0586 25.1538 19.9994 24.9308 20 24.704V15.296C19.9996 15.0695 20.0589 14.8468 20.1718 14.6505C20.2848 14.4541 20.4475 14.291 20.6435 14.1774C20.8396 14.0639 21.062 14.004 21.2886 14.0037C21.5151 14.0035 21.7377 14.0629 21.934 14.176L30.066 18.88ZM8 6H40C42.2091 6 44 7.79086 44 10V30C44 32.2091 42.2091 34 40 34H8C5.79086 34 4 32.2091 4 30V10C4 7.79086 5.79086 6 8 6Z" stroke="white" stroke-width="3.5" stroke-linecap="round" stroke-linejoin="round"/>
</svg>